<svg width="109" height="32" viewBox="0 0 109 32" fill="none" xmlns="http://www.w3.org/2000/svg">
<g clip-path="url(#clip0_1019_33137)">
<path d="M44.1119 10.7753H42.3366V9.79639H47.1297V10.7753H45.2962V15.2835H44.113V10.7753H44.1119Z" fill="#0061AF"/>
<path d="M48.9216 13.2016V15.2825H47.7374V9.79639H50.4549C51.2465 9.79639 51.8053 9.90299 52.1222 10.1172C52.5304 10.3971 52.7392 10.7999 52.7392 11.3268C52.7392 12.1581 52.3891 12.6922 51.6807 12.931C52.306 13.095 52.6395 13.6055 52.6894 14.4532C52.7143 14.8232 52.7558 15.1031 52.8223 15.2835H51.4968C51.4636 15.1933 51.422 14.9298 51.3805 14.5024C51.3306 14.0011 51.1966 13.6547 50.9722 13.4743C50.7551 13.2928 50.3884 13.2026 49.8721 13.2026H48.9216V13.2016ZM48.9216 12.2227H50.5806C51.1561 12.2227 51.4303 12.0248 51.4303 11.4662C51.4303 11.1208 51.2974 10.9065 51.0221 10.8163C50.939 10.7917 50.7883 10.7753 50.5806 10.7753H48.9216V12.2227Z" fill="#0061AF"/>
<path d="M59.2245 9.20391V9.96859L58.4911 10.7579V13.0284C58.4911 14.6408 57.7245 15.3235 56.0655 15.3235C55.1815 15.3235 54.5405 15.1256 54.1479 14.731C53.9391 14.5167 53.7895 14.2707 53.7147 13.9827C53.6648 13.7767 53.6399 13.4886 53.6399 13.1104V9.79536H54.8231V13.0858C54.8231 13.9663 55.248 14.4019 56.0904 14.4019C56.6825 14.4019 57.0492 14.2297 57.2071 13.8751C57.2736 13.7274 57.3069 13.464 57.3069 13.0858V9.79536H58.4901V10.3058L58.7155 10.0588H58.5825V9.20288H59.2245V9.20391Z" fill="#0061AF"/>
<path d="M64.752 9.20394V9.96863L64.1931 10.5775L64.2097 10.6021C64.5681 11.129 64.7437 11.8035 64.7437 12.6174C64.7437 14.4184 63.8597 15.3153 62.0843 15.3153C60.1999 15.3153 59.2588 14.402 59.2588 12.5682C59.2588 10.7343 60.1262 9.75542 62.0012 9.75542C62.851 9.75542 63.5096 9.95325 63.977 10.3561L64.244 10.0599H64.1111V9.20394H64.753H64.752ZM62.0095 10.6841C61.4507 10.6841 61.0507 10.8655 60.817 11.2356C60.6425 11.5072 60.5583 11.9347 60.5583 12.5272C60.5583 13.1196 60.6498 13.5471 60.8419 13.8433C61.0757 14.2134 61.4673 14.3948 62.0085 14.3948C62.9673 14.3948 63.4421 13.7777 63.4421 12.5436C63.4421 11.9675 63.3506 11.5318 63.1668 11.2356C62.9414 10.8655 62.5497 10.6841 62.0085 10.6841H62.0095ZM60.6009 8.20862L61.6429 9.22034H62.3762L61.6096 8.20862H60.6009Z" fill="#0061AF"/>
<path d="M66.5606 11.2612V15.2835H65.4355V9.79742H66.9439L69.1617 13.8853V9.79742H70.2868V15.2835H68.8366L66.5606 11.2612Z" fill="#0061AF"/>
<path d="M73.4551 12.0259H76.1893V15.2835H73.7055C72.9305 15.2835 72.3633 15.1441 71.9966 14.856C71.4128 14.404 71.1209 13.6383 71.1209 12.561C71.1209 11.4836 71.4128 10.7179 71.9883 10.2659C72.38 9.95323 72.9721 9.79742 73.7553 9.79742H76.1893V10.7763H73.8966C73.3377 10.7763 72.9461 10.924 72.7217 11.212C72.5212 11.4672 72.4215 11.8865 72.4215 12.4544C72.4215 13.1862 72.5545 13.6967 72.8215 13.9766C73.0303 14.199 73.4053 14.3056 73.9382 14.3056H75.005V13.0058H73.4541V12.0269L73.4551 12.0259Z" fill="#0061AF"/>
<path d="M83.783 9.79639V15.2825H82.5987V13.0202H80.4567V15.2825H79.2724V9.79639H80.4567V12.0423H82.5987V9.79639H83.783Z" fill="#0061AF"/>
<path d="M89.4767 10.4873C89.8932 10.9557 90.102 11.664 90.102 12.6173C90.102 14.4183 89.218 15.3152 87.4427 15.3152C85.5583 15.3152 84.6171 14.4019 84.6171 12.5681C84.6171 10.7343 85.4845 9.75537 87.3596 9.75537C88.3267 9.75537 89.0352 10.0024 89.4767 10.4873ZM86.1753 11.2355C85.9998 11.5072 85.9167 11.9346 85.9167 12.5271C85.9167 13.1196 86.0081 13.547 86.2003 13.8433C86.434 14.2133 86.8256 14.3947 87.3668 14.3947C88.3257 14.3947 88.8004 13.7777 88.8004 12.5435C88.8004 11.9674 88.709 11.5318 88.5251 11.2355C88.2997 10.8655 87.9081 10.6841 87.3668 10.6841C86.8256 10.6841 86.408 10.8655 86.1743 11.2355H86.1753ZM87.7927 15.7509V16.573H86.9513V15.7509H87.7927Z" fill="#0061AF"/>
<path d="M95.0114 14.3046V15.2835H93.0772C92.6523 15.2835 92.3272 15.2589 92.0851 15.2015C91.7517 15.1195 91.4681 14.9627 91.226 14.7413C90.7347 14.2728 90.4926 13.5481 90.4926 12.5538C90.4926 12.0023 90.5757 11.5257 90.7513 11.1064C90.9601 10.6042 91.2852 10.2505 91.7184 10.0455C92.0768 9.88047 92.5432 9.79846 93.127 9.79846H95.0114V10.7774H93.2693C92.7271 10.7774 92.3272 10.925 92.0851 11.2212C91.8929 11.4519 91.8015 11.8629 91.8015 12.4472C91.8015 13.2775 91.9677 13.8126 92.3095 14.0596C92.5349 14.2236 92.8684 14.3066 93.3099 14.3066H95.0104L95.0114 14.3046Z" fill="#0061AF"/>
<path d="M97.9211 15.2835V14.3046H100.455C100.863 14.3046 101.138 14.2636 101.28 14.1733C101.463 14.0585 101.555 13.8935 101.555 13.6711C101.555 13.219 101.238 12.9884 100.596 12.9884H99.5707C98.2951 12.9884 97.6531 12.4615 97.6531 11.417C97.6531 10.7343 98.0281 10.109 98.6535 9.90299C98.8706 9.82919 99.2539 9.79639 99.8118 9.79639H102.563V10.7753H100.079C99.7203 10.7753 99.47 10.7917 99.337 10.8245C99.0867 10.8819 98.962 11.0715 98.962 11.3842C98.962 11.6476 99.07 11.828 99.2788 11.9193C99.4118 11.9767 99.6455 12.0095 99.979 12.0095H100.871C101.522 12.0095 102.005 12.1243 102.322 12.3549C102.688 12.6183 102.872 13.054 102.872 13.6711C102.872 13.9673 102.806 14.2472 102.663 14.5106C102.514 14.7986 102.313 14.9954 102.055 15.1195C101.829 15.2261 101.379 15.2845 100.712 15.2845H97.9201L97.9211 15.2835Z" fill="#0061AF"/>
<path d="M108.292 10.4873C108.708 10.9557 108.917 11.664 108.917 12.6173C108.917 14.4183 108.033 15.3153 106.258 15.3153C104.373 15.3153 103.432 14.4019 103.432 12.5681C103.432 10.7343 104.299 9.7554 106.174 9.7554C107.142 9.7554 107.85 10.0024 108.292 10.4873ZM104.99 11.2356C104.815 11.5072 104.732 11.9347 104.732 12.5271C104.732 13.1196 104.823 13.5471 105.015 13.8433C105.249 14.2133 105.641 14.3948 106.182 14.3948C107.141 14.3948 107.615 13.7777 107.615 12.5435C107.615 11.9675 107.524 11.5318 107.34 11.2356C107.115 10.8655 106.723 10.6841 106.182 10.6841C105.641 10.6841 105.223 10.8655 104.989 11.2356H104.99ZM106.191 8.80108L105.674 9.38535H104.832L105.733 8.37363H106.65L107.559 9.38535H106.718L106.192 8.80108H106.191ZM109 7.63354L107.958 8.64527H107.225L107.991 7.63354H109Z" fill="#0061AF"/>
<path d="M47.7363 22.8084V23.3824H46.4233C46.4025 23.3824 46.3547 23.3896 46.2727 23.3896H45.6774C45.3076 23.3896 45.0136 23.3691 44.8017 23.3291C44.4942 23.2686 44.2345 23.1538 44.0153 22.9847C43.4959 22.5798 43.2352 21.9791 43.2352 21.1765C43.2352 20.4549 43.4263 19.888 43.8024 19.4688C44.1992 19.0301 44.7602 18.8138 45.478 18.8138C46.1958 18.8138 46.7017 19.0157 47.0788 19.4145C47.4413 19.7989 47.6189 20.3391 47.6189 21.034C47.6189 21.4184 47.5712 21.7423 47.4756 22.0058C47.3665 22.2897 47.1816 22.5593 46.9146 22.8084H47.7353H47.7363ZM44.3031 19.8798C44.1047 20.1566 44.0091 20.5748 44.0091 21.1212C44.0091 21.6675 44.1119 22.0857 44.3239 22.3564C44.5628 22.6669 44.9534 22.8217 45.4936 22.8217C45.9652 22.8217 46.3142 22.6526 46.5469 22.3225C46.7453 22.0386 46.8482 21.6542 46.8482 21.1755C46.8482 19.9813 46.3828 19.3868 45.453 19.3868C44.9264 19.3868 44.543 19.5487 44.3041 19.8798H44.3031Z" fill="#0061AF"/>
<path d="M49.0899 18.8804V21.5527C49.0899 22.0252 49.1647 22.3491 49.3153 22.5244C49.5137 22.7602 49.842 22.875 50.2928 22.875C50.8258 22.875 51.1883 22.7264 51.3732 22.4229C51.4625 22.2743 51.5103 21.9637 51.5103 21.4983V18.8804H52.2416V21.4983C52.2416 21.8694 52.2281 22.1257 52.1939 22.2815C52.1388 22.5582 52.0162 22.7807 51.8251 22.956C51.4625 23.2871 50.9224 23.449 50.2045 23.449C49.4867 23.449 48.9465 23.2327 48.638 22.794C48.4531 22.5306 48.3575 22.1124 48.3575 21.5527V18.8804H49.0889H49.0899Z" fill="#0061AF"/>
<path d="M56.7636 19.4206C57.0991 19.7989 57.2632 20.3719 57.2632 21.1417C57.2632 22.6803 56.5174 23.4501 55.0204 23.4501C53.5235 23.4501 52.8462 22.6803 52.8462 21.1417C52.8462 20.3995 53.0311 19.8327 53.3999 19.4339C53.7832 19.0219 54.3442 18.8128 55.089 18.8128C55.8338 18.8128 56.4093 19.0147 56.7646 19.4206H56.7636ZM53.9183 19.8727C53.7199 20.1494 53.617 20.5676 53.617 21.1283C53.617 21.689 53.7126 22.1134 53.9048 22.3902C54.1375 22.7141 54.527 22.8761 55.0672 22.8761C55.7164 22.8761 56.1413 22.6464 56.3387 22.1811C56.4415 21.9453 56.4893 21.607 56.4893 21.1622C56.4893 20.5748 56.4 20.1494 56.2223 19.8932C55.9896 19.5559 55.6074 19.3868 55.0807 19.3868C54.554 19.3868 54.151 19.5487 53.9183 19.8727ZM55.0942 18.0173L54.6153 18.5032H54.0201L54.7857 17.6934H55.4017L56.1611 18.5032H55.5731L55.0942 18.0173ZM55.8878 17.8287L56.5236 17.0189H57.2549L56.3937 17.8287H55.8878Z" fill="#0061AF"/>
<path d="M61.298 22.8084V23.3824H59.8821C59.0957 23.3824 58.542 23.2133 58.2065 22.8699C57.8169 22.4722 57.6247 21.9053 57.6247 21.1621C57.6247 20.7778 57.686 20.42 57.8159 20.0756C57.9592 19.684 58.1712 19.3868 58.4454 19.192C58.7394 18.9829 59.2048 18.8814 59.8405 18.8814H61.2969V19.4554H59.881C59.6141 19.4554 59.4094 19.4688 59.2723 19.5026C59.0531 19.5569 58.8827 19.6574 58.7591 19.8132C58.5202 20.1166 58.3966 20.5686 58.3966 21.1826C58.3966 21.7567 58.5337 22.1954 58.8142 22.4855C58.9513 22.6269 59.1217 22.7212 59.3336 22.7684C59.4634 22.795 59.6691 22.8084 59.9423 22.8084H61.2969H61.298Z" fill="#0061AF"/>
<path d="M65.2724 20.8034H67.4062V23.3814H65.7171C65.3275 23.3814 65.0335 23.3609 64.8351 23.3137C64.5339 23.2461 64.2742 23.1108 64.0622 22.9088C63.6727 22.5377 63.4743 21.9504 63.4743 21.1539C63.4743 20.1617 63.7547 19.5005 64.3157 19.1633C64.6305 18.9747 65.1094 18.8804 65.7524 18.8804H67.4072V19.4544H65.8137C65.554 19.4544 65.3826 19.4616 65.3078 19.4677C64.6035 19.5487 64.2482 20.0951 64.2482 21.1006C64.2482 21.9842 64.4944 22.5111 64.9795 22.6997C65.1571 22.7674 65.4376 22.8073 65.8137 22.8073H66.6748V21.3764H65.2724V20.8023V20.8034Z" fill="#0061AF"/>
<path d="M68.2673 23.3814V18.8804H68.9986V23.3814H68.2673Z" fill="#0061AF"/>
<path d="M69.5128 23.3814L71.4004 18.8804H72.3581L74.1709 23.3814H73.398L72.9326 22.2077H70.7719L70.2868 23.3814H69.5139H69.5128ZM71.8658 19.4206L70.99 21.6337H72.6999L71.8658 19.4206Z" fill="#0061AF"/>
<path d="M80.6946 18.8804L78.752 23.3814H77.8836L75.9275 18.8804H76.7689L78.3282 22.7069L79.9082 18.8804H80.6946Z" fill="#0061AF"/>
<path d="M81.214 23.3814V18.8804H81.9453V23.3814H81.214Z" fill="#0061AF"/>
<path d="M86.221 18.8804V19.4544H84.8945C84.6005 19.4544 84.3678 19.4883 84.2109 19.5487C83.7933 19.7035 83.5336 20.1084 83.4993 20.8311H86.221V21.4051H83.4921C83.4993 21.6747 83.5471 21.9176 83.6427 22.1411C83.7591 22.4107 83.9232 22.5931 84.1351 22.6874C84.3065 22.7684 84.5454 22.8094 84.8529 22.8094H86.221V23.3835H84.7231C84.3533 23.3835 84.0593 23.3435 83.8338 23.2687C83.5534 23.1743 83.3144 23.0052 83.1295 22.7561C82.8356 22.3717 82.6922 21.8654 82.6922 21.2247C82.6922 20.3073 82.9592 19.6461 83.4921 19.2341C83.7996 18.9983 84.2785 18.8835 84.935 18.8835H86.221V18.8804ZM84.935 18.0163L84.4561 18.5022H83.8609L84.6265 17.6924H85.2425L86.0018 18.5022H85.4139L84.935 18.0163ZM84.6337 24.3665V23.7525H85.229V24.3665H84.6337Z" fill="#0061AF"/>
<path d="M88.6903 19.4544H87.1103V18.8804H90.9944V19.4544H89.4216V23.3814H88.6903V19.4544Z" fill="#0061AF"/>
<path d="M93.929 19.7916V23.3814H93.2247V18.8804H94.0931L96.4252 22.4844V18.8804H97.1296V23.3814H96.2881L93.929 19.7916Z" fill="#0061AF"/>
<path d="M97.6427 23.3814L99.5302 18.8804H100.488L102.301 23.3814H101.528L101.062 22.2077H98.9018L98.4166 23.3814H97.6438H97.6427ZM99.9956 19.4206L99.1199 21.6337H100.83L99.9956 19.4206Z" fill="#0061AF"/>
<path d="M103.893 18.8804L105.391 22.5511L106.773 18.8804H107.847V23.3814H107.143V19.5549L105.72 23.3814H104.995L103.525 19.5549V23.3814H102.821V18.8804H103.895H103.893Z" fill="#0061AF"/>
<path d="M16.9513 0.342391L0.704311 6.98369C-0.234771 7.36808 -0.234771 8.68014 0.704311 9.06454L16.9523 15.7048C18.0711 16.162 19.327 16.162 20.4458 15.7048L36.6938 9.06454C37.6329 8.68117 37.6329 7.36808 36.6938 6.98369L20.4458 0.342391C19.327 -0.114781 18.0711 -0.114781 16.9523 0.342391H16.9513ZM18.6923 14.1631C17.4302 14.1631 16.408 13.1524 16.41 11.907C16.4121 10.7077 17.3865 9.70827 18.6009 9.66112C19.9025 9.61089 20.9746 10.638 20.9746 11.9111C20.9746 13.1842 19.9524 14.1631 18.6923 14.1631Z" fill="#ED1C24"/>
<path d="M34.6775 14.0135V25.4541C34.6775 26.3654 34.1217 27.1864 33.2688 27.5349L27.8806 29.7367V24.9682L30.3965 23.9391V20.1505C30.9128 20.0182 31.2878 19.5385 31.2473 18.9799C31.2068 18.4028 30.7134 17.9435 30.1265 17.9353C29.4876 17.9261 28.9682 18.4335 28.9682 19.0608C28.9682 19.5867 29.3328 20.0275 29.8262 20.1515V23.5639L27.8806 24.3593L27.3102 24.593V29.9715L22.5577 31.9139C21.8066 32.2215 20.9798 31.6761 20.9798 30.8735V25.3526L25.8258 23.3722V22.0304C26.3452 21.9013 26.7233 21.4205 26.6828 20.8588C26.6423 20.2971 26.1478 19.8214 25.5609 19.8132C24.9231 19.804 24.4037 20.3114 24.4037 20.9387C24.4037 21.4625 24.7652 21.9013 25.2544 22.0273V22.995L20.9787 24.7427V19.4319C20.9787 18.5206 21.5345 17.6996 22.3873 17.3511L33.0995 12.9731C33.8506 12.6656 34.6775 13.2109 34.6775 14.0135Z" fill="#0061AF"/>
<path d="M2.71855 14.0135V25.454C2.71855 26.3653 3.27431 27.1864 4.12718 27.5349L9.51547 29.7367V24.9682L6.99948 23.939V20.1504C6.48319 20.0182 6.10818 19.5385 6.14869 18.9798C6.18921 18.4212 6.68264 17.9435 7.26957 17.9353C7.90844 17.9261 8.42784 18.4335 8.42784 19.0608C8.42784 19.5866 8.06322 20.0274 7.56978 20.1515V23.5638L9.51547 24.3593L10.0858 24.593V29.9714L14.8383 31.9139C15.5894 32.2214 16.4163 31.6761 16.4163 30.8735V25.3526L11.5702 23.3722V22.0304C11.0508 21.9012 10.6727 21.4205 10.7132 20.8587C10.7537 20.2806 11.2482 19.8214 11.8351 19.8132C12.473 19.804 12.9924 20.3114 12.9924 20.9387C12.9924 21.4625 12.6309 21.9012 12.1416 22.0273V22.9949L16.4173 24.7427V19.4319C16.4173 18.5206 15.8615 17.6995 15.0087 17.351L4.29546 12.9741C3.5444 12.6665 2.71751 13.2119 2.71751 14.0145L2.71855 14.0135Z" fill="#0061AF"/>
</g>
<defs>
<clipPath id="clip0_1019_33137">
<rect width="109" height="32" fill="white"/>
</clipPath>
</defs>
</svg>
