<svg width="32" height="32" viewBox="0 0 32 32" fill="none" xmlns="http://www.w3.org/2000/svg">
<path d="M14.5045 2.29794L0.60265 8.06886C-0.200883 8.40288 -0.200883 9.54299 0.60265 9.87701L14.5054 15.647C15.4627 16.0443 16.5373 16.0443 17.4946 15.647L31.3974 9.87701C32.2009 9.54388 32.2009 8.40288 31.3974 8.06886L17.4946 2.29794C16.5373 1.90069 15.4627 1.90069 14.5054 2.29794H14.5045ZM15.9942 14.3074C14.9143 14.3074 14.0396 13.4292 14.0414 12.347C14.0432 11.3048 14.8769 10.4364 15.916 10.3954C17.0297 10.3518 17.9471 11.2442 17.9471 12.3505C17.9471 13.4568 17.0724 14.3074 15.9942 14.3074Z" fill="#ED1C24"/>
<path d="M29.6721 14.1774V24.1186C29.6721 24.9105 29.1965 25.6239 28.4668 25.9268L23.8562 27.84V23.6964L26.0091 22.8021V19.5101C26.4508 19.3952 26.7717 18.9783 26.737 18.4929C26.7024 17.9914 26.2802 17.5924 25.778 17.5853C25.2313 17.5772 24.7869 18.0181 24.7869 18.5633C24.7869 19.0202 25.0989 19.4032 25.5211 19.511V22.4761L23.8562 23.1673L23.3682 23.3704V28.044L19.3017 29.7319C18.659 29.9991 17.9515 29.5252 17.9515 28.8278V24.0304L22.0981 22.3096V21.1436C22.5425 21.0314 22.866 20.6137 22.8314 20.1256C22.7967 19.6375 22.3736 19.2242 21.8714 19.217C21.3256 19.209 20.8812 19.6499 20.8812 20.195C20.8812 20.6502 21.1905 21.0314 21.6092 21.141V21.9818L17.9506 23.5005V18.8857C17.9506 18.0938 18.4262 17.3804 19.1559 17.0775L28.3219 13.2733C28.9645 13.0061 29.6721 13.48 29.6721 14.1774Z" fill="#0061AF"/>
<path d="M2.32616 14.1774V24.1186C2.32616 24.9104 2.8017 25.6239 3.53146 25.9267L8.142 27.84V23.6964L5.98917 22.8021V19.51C5.5474 19.3951 5.22652 18.9783 5.26119 18.4929C5.29586 18.0074 5.71807 17.5923 6.22028 17.5852C6.76693 17.5772 7.21136 18.0181 7.21136 18.5632C7.21136 19.0202 6.89937 19.4032 6.47716 19.5109V22.4761L8.142 23.1673L8.62998 23.3704V28.044L12.6965 29.7318C13.3392 29.9991 14.0467 29.5252 14.0467 28.8278V24.0304L9.90017 22.3096V21.1436C9.45574 21.0314 9.13219 20.6136 9.16686 20.1255C9.20153 19.6232 9.62463 19.2241 10.1268 19.217C10.6726 19.209 11.117 19.6499 11.117 20.195C11.117 20.6502 10.8077 21.0314 10.389 21.1409V21.9818L14.0476 23.5004V18.8857C14.0476 18.0938 13.5721 17.3804 12.8423 17.0775L3.67546 13.2742C3.03281 13.007 2.32527 13.4808 2.32527 14.1782L2.32616 14.1774Z" fill="#0061AF"/>
</svg>
